<?xml version="1.0" encoding="UTF-8" standalone="no"?>
<svg
   version="1.1"
   viewBox="0 0 277.02 277.02"
   id="svg57"
   width="277.01999"
   height="277.01999"
   xmlns:xlink="http://www.w3.org/1999/xlink"
   xmlns="http://www.w3.org/2000/svg"
   xmlns:svg="http://www.w3.org/2000/svg">
  <!-- Generator: Adobe Illustrator 29.6.1, SVG Export Plug-In . SVG Version: 2.1.1 Build 9)  -->
  <defs
     id="defs34">
    <style
       id="style1">
      .st0, .st1 {
        fill: none;
      }

      .st2 {
        fill: url(#Unbenannter_Verlauf_117);
      }

      .st2, .st3 {
        stroke: #374f65;
        stroke-width: 5.5px;
      }

      .st2, .st3, .st1, .st4, .st5 {
        stroke-linecap: round;
        stroke-linejoin: round;
      }

      .st6 {
        fill: url(#Unbenannter_Verlauf_3);
      }

      .st7 {
        fill: url(#Unbenannter_Verlauf_6);
      }

      .st8 {
        fill: #374f65;
      }

      .st3, .st9 {
        fill: #fee9d2;
      }

      .st10 {
        fill: #fff;
      }

      .st1, .st11, .st4, .st5 {
        stroke: #26435f;
        stroke-width: 5px;
      }

      .st11 {
        fill: url(#Unbenannter_Verlauf_80);
        stroke-miterlimit: 10;
      }

      .st12 {
        fill: url(#Unbenannter_Verlauf_31);
      }

      .st13 {
        fill: url(#Unbenannter_Verlauf_35);
      }

      .st14 {
        fill: url(#Unbenannter_Verlauf_11);
      }

      .st4 {
        fill: url(#Unbenannter_Verlauf_95);
      }

      .st5 {
        fill: url(#Unbenannter_Verlauf_109);
      }

      .st15 {
        clip-path: url(#clippath);
      }
    </style>
    <radialGradient
       id="Unbenannter_Verlauf_117"
       data-name="Unbenannter Verlauf 117"
       cx="210.41"
       cy="46.939999"
       fx="210.41"
       fy="46.939999"
       r="247.88"
       gradientUnits="userSpaceOnUse">
      <stop
         offset=".31"
         stop-color="#eb96c0"
         id="stop1" />
      <stop
         offset=".42"
         stop-color="#e499c3"
         id="stop2" />
      <stop
         offset=".58"
         stop-color="#d3a3cb"
         id="stop3" />
      <stop
         offset=".75"
         stop-color="#b7b2da"
         id="stop4" />
      <stop
         offset=".94"
         stop-color="#8fc8ee"
         id="stop5" />
      <stop
         offset="1"
         stop-color="#83d0f5"
         id="stop6" />
    </radialGradient>
    <radialGradient
       id="Unbenannter_Verlauf_35"
       data-name="Unbenannter Verlauf 35"
       cx="207.99001"
       cy="186.60001"
       fx="207.99001"
       fy="186.60001"
       r="92.199997"
       gradientUnits="userSpaceOnUse">
      <stop
         offset="0"
         stop-color="#daa181"
         id="stop7" />
      <stop
         offset=".33"
         stop-color="#dba383"
         id="stop8" />
      <stop
         offset=".52"
         stop-color="#deaa8b"
         id="stop9" />
      <stop
         offset=".66"
         stop-color="#e4b699"
         id="stop10" />
      <stop
         offset=".79"
         stop-color="#edc7ac"
         id="stop11" />
      <stop
         offset=".9"
         stop-color="#f8ddc5"
         id="stop12" />
      <stop
         offset=".94"
         stop-color="#fee9d2"
         id="stop13" />
    </radialGradient>
    <clipPath
       id="clippath">
      <circle
         class="st0"
         cx="206.92999"
         cy="198.35001"
         r="135.75999"
         id="circle13" />
    </clipPath>
    <radialGradient
       id="Unbenannter_Verlauf_80"
       data-name="Unbenannter Verlauf 80"
       cx="202.59"
       cy="421.62"
       fx="202.59"
       fy="421.62"
       r="238.98"
       gradientUnits="userSpaceOnUse">
      <stop
         offset=".06"
         stop-color="#194383"
         id="stop14" />
      <stop
         offset=".19"
         stop-color="#1c4786"
         id="stop15" />
      <stop
         offset=".32"
         stop-color="#255390"
         id="stop16" />
      <stop
         offset=".46"
         stop-color="#3467a0"
         id="stop17" />
      <stop
         offset=".59"
         stop-color="#4a84b8"
         id="stop18" />
      <stop
         offset=".73"
         stop-color="#65a9d5"
         id="stop19" />
      <stop
         offset=".85"
         stop-color="#83d0f5"
         id="stop20" />
    </radialGradient>
    <linearGradient
       id="Unbenannter_Verlauf_3"
       data-name="Unbenannter Verlauf 3"
       x1="266.38"
       y1="193.50999"
       x2="327.25"
       y2="193.50999"
       gradientUnits="userSpaceOnUse">
      <stop
         offset=".42"
         stop-color="#daa181"
         id="stop21" />
      <stop
         offset=".87"
         stop-color="#fee9d2"
         id="stop22" />
    </linearGradient>
    <linearGradient
       id="Unbenannter_Verlauf_31"
       data-name="Unbenannter Verlauf 3"
       x1="-5591.7402"
       y1="193.50999"
       x2="-5530.8701"
       y2="193.50999"
       gradientTransform="matrix(-1,0,0,1,-5444.31,0)"
       xlink:href="#Unbenannter_Verlauf_3" />
    <linearGradient
       id="Unbenannter_Verlauf_6"
       data-name="Unbenannter Verlauf 6"
       x1="112.09"
       y1="290.88"
       x2="303.35001"
       y2="290.88"
       gradientUnits="userSpaceOnUse">
      <stop
         offset=".13"
         stop-color="#fee9d2"
         id="stop23" />
      <stop
         offset=".58"
         stop-color="#daa181"
         id="stop24" />
    </linearGradient>
    <linearGradient
       id="Unbenannter_Verlauf_11"
       data-name="Unbenannter Verlauf 11"
       x1="175.97"
       y1="268.54001"
       x2="232.28"
       y2="158.03"
       gradientUnits="userSpaceOnUse">
      <stop
         offset=".32"
         stop-color="#fee9d2"
         id="stop25" />
      <stop
         offset=".82"
         stop-color="#daa181"
         id="stop26" />
    </linearGradient>
    <radialGradient
       id="Unbenannter_Verlauf_109"
       data-name="Unbenannter Verlauf 109"
       cx="250"
       cy="238.45"
       fx="250"
       fy="238.45"
       r="181.63"
       gradientUnits="userSpaceOnUse">
      <stop
         offset=".32"
         stop-color="#83d0f5"
         id="stop27" />
      <stop
         offset=".43"
         stop-color="#65a8d5"
         id="stop28" />
      <stop
         offset=".67"
         stop-color="#1a4584"
         id="stop29" />
      <stop
         offset=".68"
         stop-color="#194383"
         id="stop30" />
    </radialGradient>
    <linearGradient
       id="Unbenannter_Verlauf_95"
       data-name="Unbenannter Verlauf 95"
       x1="199.38"
       y1="226.92"
       x2="234.71001"
       y2="412.88"
       gradientUnits="userSpaceOnUse">
      <stop
         offset=".25"
         stop-color="#83d0f5"
         id="stop31" />
      <stop
         offset=".39"
         stop-color="#65a8d5"
         id="stop32" />
      <stop
         offset=".71"
         stop-color="#1a4584"
         id="stop33" />
      <stop
         offset=".71"
         stop-color="#194383"
         id="stop34" />
    </linearGradient>
    <linearGradient
       xlink:href="#Unbenannter_Verlauf_3"
       id="linearGradient57"
       gradientUnits="userSpaceOnUse"
       x1="266.38"
       y1="193.50999"
       x2="327.25"
       y2="193.50999" />
  </defs>
  <g
     id="Ebene_8"
     transform="translate(-68.419998,-59.840012)">
    <circle
       id="_x3C_Ellipse_HG_x3E_"
       class="st2"
       cx="206.92999"
       cy="198.35001"
       r="135.75999"
       style="fill:url(#Unbenannter_Verlauf_117)" />
    <g
       id="_x3C_Gruppe_Horn_x3E_">
      <g
         id="_x3C_Horn_x3E_">
        <path
           class="st13"
           d="m 151.77,173.28 c -4.29,-0.94 -8.28,-2.64 -11.84,-4.95 -7.89,-5.14 -13.62,-13.29 -15.55,-22.83 -0.46,-2.3 -0.7,-4.67 -0.7,-7.11 0,-18.35 13.85,-33.45 31.65,-35.46 -4.38,4.66 -7.07,10.93 -7.07,17.83 0,14.16 11.3,25.67 25.37,26.02 0,0 15.5,0.23 33.28,0.23 17.78,0 35.41,-0.23 35.41,-0.23 14.07,-0.35 25.37,-11.87 25.37,-26.02 0,-6.9 -2.69,-13.17 -7.08,-17.83 17.82,2.01 31.66,17.11 31.66,35.46 0,2.44 -0.26,4.81 -0.71,7.11 -1.93,9.54 -7.66,17.69 -15.54,22.83 -3.57,2.31 -7.56,4.01 -11.84,4.95 0,0 -25.17,3.4 -57.28,3.4 -32.11,0 -55.16,-3.4 -55.16,-3.4 z"
           id="path34"
           style="fill:url(#Unbenannter_Verlauf_35)" />
        <path
           class="st8"
           d="m 151.47,174.92 c -3.35,-0.66 -6.54,-1.31 -9.71,-2.56 -5.16,-2.26 -9.57,-6.12 -12.99,-10.56 -14.33,-18.81 -8.1,-47.44 13.14,-58.17 4.03,-2.14 8.46,-3.58 13.01,-4.2 1.91,-0.34 3.74,0.96 4.02,2.89 0.17,1.15 -0.26,2.27 -1.05,3.02 -1.24,1.17 -2.38,2.46 -3.33,3.9 -3.36,5.13 -4.51,11.65 -3.01,17.64 2.31,9.51 11.57,16.61 21.27,16.85 3.16,0.1 8.39,-0.1 11.64,-0.11 17.61,-0.2 35.27,-0.14 52.89,0.04 0,0 2.94,0.04 2.94,0.04 4.49,0.18 8.82,-0.6 12.81,-2.74 9.51,-5.01 14.64,-16.96 11.25,-27.26 -1.05,-3.44 -2.92,-6.61 -5.44,-9.17 -0.89,-0.95 -0.83,-2.44 0.12,-3.33 0.52,-0.48 1.2,-0.69 1.85,-0.62 4.44,0.43 8.82,1.65 12.86,3.6 21.44,10.27 27.96,38.79 13.06,57.3 -5.5,7.02 -13.51,12.01 -22.24,13.76 -32.88,3.58 -65.99,3.32 -98.94,1.01 -4.64,-0.34 -9.55,-0.79 -14.17,-1.36 v 0 z m 0.6,-3.27 c 36.76,5.46 75.58,4.49 111.71,-0.33 11.53,-2.6 21.23,-11.74 24.5,-23.08 4.59,-15.13 -2.69,-32.31 -16.84,-39.41 -3.43,-1.82 -7.19,-3.02 -11.07,-3.55 0.02,0.02 1.97,-4.04 2,-3.93 8.87,9.48 10.22,24.89 2.86,35.65 -5.34,8.2 -15.05,13.08 -24.81,12.89 -1.81,0.04 -6.95,0.18 -8.84,0.22 -15.73,0.37 -31.46,0.5 -47.18,0.03 -1.86,-0.05 -7.03,-0.17 -8.84,-0.23 -9.74,0.14 -19.42,-4.78 -24.7,-13 -7.19,-10.59 -5.54,-26.12 3.64,-34.78 -0.01,0 1.03,2 0.98,1.99 -15.76,2.42 -28.76,16.61 -29.05,32.63 -0.99,15.75 10.23,31.24 25.66,34.91 v 0 z"
           id="path35" />
      </g>
    </g>
    <g
       class="st15"
       clip-path="url(#clippath)"
       id="g56">
      <path
         id="_x3C_Welle_HG_x3E_"
         class="st11"
         d="M 0.52,410.3 H 410.09 V 285.47 c -14.25,-2.88 -30.44,-9.37 -41.02,-19.5 -29.32,-28.06 -77.3,-28.06 -106.62,0 -29.32,28.06 -77.3,28.06 -106.61,0 -29.31,-28.06 -77.29,-28.06 -106.61,0 -13.49,12.92 -30.94,19.87 -48.7,20.9 V 410.3 Z"
         style="fill:url(#Unbenannter_Verlauf_80)" />
      <g
         id="g54">
        <g
           id="_x3C_Gruppe_Ohr_rechts_x3E_">
          <g
             id="g37">
            <path
               class="st6"
               d="m 327.25,194.95 c -1.01,17.35 -36.42,31.44 -54.76,5.86 -1.11,-4.3 -2.86,-18.71 -6.11,-27.21 33.08,-7.88 48.9,20.46 60.87,21.35 z"
               id="path36"
               style="fill:url(#linearGradient57)" />
            <path
               class="st8"
               d="m 329.31,193.14 c 0.56,1.25 0.77,3.13 0.39,4.54 0,0 -0.26,1.27 -0.26,1.27 0,0 -0.4,1.21 -0.4,1.21 -4.02,10.7 -15.73,16.69 -26.56,17.63 -12.72,1.27 -25.72,-4.92 -31.16,-16.62 -1.05,-4.53 -1.87,-9.28 -3.09,-13.75 -1.21,-4.34 -2.43,-8.86 -4.43,-12.84 -0.8,-1.55 0.26,-3.37 1.93,-3.66 2.86,-0.62 5.76,-1.16 8.72,-1.33 8.84,-0.67 17.91,1.46 25.68,5.54 5.2,2.68 9.9,6.07 14.37,9.45 3.27,2.42 6.36,4.99 9.9,6.7 1.62,0.86 3.39,0.8 4.91,1.85 v 0 z m -3.33,2.91 c -0.28,0.34 -0.06,0.45 -0.4,0.35 -2.51,-0.55 -4.86,-1.84 -6.96,-3.18 -6.94,-4.58 -13.37,-10.1 -20.76,-13.67 -9.56,-4.9 -20.53,-6.01 -30.86,-3.27 0,0 1.93,-3.66 1.93,-3.66 0.54,2.47 0.96,4.83 1.38,7.17 1.3,6.84 1.81,13.94 4.43,20.43 0,0 -0.36,-0.78 -0.36,-0.78 6.77,8.06 16.85,13.42 27.53,12.43 9.14,-0.81 19.36,-5.35 23.02,-14.28 0.09,-0.28 0.31,-1.07 0.4,-1.34 0,-0.03 0.02,-0.03 0.07,-0.03 0.1,0 0.33,0 0.58,-0.16 v 0 z"
               id="path37" />
          </g>
          <g
             id="g39">
            <path
               class="st9"
               d="m 266.38,173.6 c 31.71,-8.38 49.6,19.98 60.53,21.35 -11.12,8.84 -50.07,-1.37 -57.74,-14.08"
               id="path38" />
            <path
               class="st8"
               d="m 265.86,171.64 c 17.78,-6.32 34.76,1.22 48.76,12.27 4.05,2.78 8.08,6.92 12.74,8.08 2.54,0.34 3.43,3.78 1.41,5.31 -12.79,9.73 -44.19,0.74 -55.62,-8.77 -1.63,-1.33 -8.27,-7.35 -4.74,-9.21 0.85,-0.42 1.83,-0.13 2.38,0.58 9.27,9.97 42.77,20.94 55.13,13.81 0,0 0.79,2.82 0.79,2.82 -3.23,-0.28 -5.83,-1.87 -8.45,-3.43 -4.77,-2.97 -9.08,-6.38 -13.83,-9.25 -6.62,-4.31 -14.12,-7.53 -21.88,-8.55 -5.23,-0.76 -10.56,-0.49 -15.8,0.28 -2.4,0.27 -3.19,-3.14 -0.91,-3.95 v 0 z"
               id="path39" />
          </g>
        </g>
        <g
           id="_x3C_Gruppe_Ohr_links_x3E_">
          <g
             id="g41">
            <path
               class="st12"
               d="m 86.56,194.95 c 1.01,17.35 36.42,31.44 54.76,5.86 1.11,-4.3 2.86,-18.71 6.11,-27.21 -33.08,-7.88 -48.9,20.46 -60.87,21.35 z"
               id="path40"
               style="fill:url(#Unbenannter_Verlauf_31)" />
            <path
               class="st8"
               d="m 88.63,196.76 c 0.47,0.02 0.93,-0.3 0.9,-0.69 0.08,0.24 0.29,0.96 0.37,1.22 2.33,6.17 8.37,10.26 14.45,12.43 9.91,3.76 21.14,1.82 29.7,-4.32 2.16,-1.58 4.23,-3.36 6.29,-5.3 l -0.19,0.4 c 1.46,-6.8 1.89,-13.89 3.15,-20.76 0.45,-2.34 0.88,-4.71 1.56,-7.13 l 1.93,3.66 c -10.3,-2.55 -21.2,-1.28 -30.61,3.75 -8.74,4.25 -15.73,11.69 -24.47,16.25 -1.02,0.5 -2.15,0.88 -3.26,1.15 -0.11,0.03 -0.25,0.07 -0.15,0.03 0.16,-0.08 0.35,-0.36 0.33,-0.7 v 0 z m -3.33,-2.92 c 0.66,-0.39 1.63,-0.63 2.39,-0.82 4.61,-1.48 8.2,-4.91 12.09,-7.8 4.41,-3.45 9.01,-6.88 14.13,-9.61 7.65,-4.17 16.63,-6.42 25.42,-5.88 2.95,0.13 5.86,0.62 8.73,1.2 0,0 0.73,0.27 0.73,0.27 1.21,0.45 1.83,1.8 1.38,3.01 -1.13,2.05 -2.12,4.23 -2.85,6.55 -1.44,4.37 -2.45,8.91 -3.09,13.48 0,0 -0.37,3.49 -0.37,3.49 -0.2,1.29 -0.02,2.76 -0.43,4.1 -6.28,11.13 -19.46,17.21 -32.07,15.57 -10.55,-1.22 -21.83,-7.15 -25.61,-17.61 -0.26,-0.76 -0.46,-1.54 -0.6,-2.34 -0.29,-1.12 -0.18,-2.57 0.15,-3.61 z"
               id="path41" />
          </g>
          <g
             id="g43">
            <path
               class="st9"
               d="m 147.43,173.6 c -31.71,-8.38 -49.6,19.98 -60.53,21.35 11.12,8.84 50.07,-1.37 57.74,-14.08"
               id="path42" />
            <path
               class="st8"
               d="m 146.91,175.57 c -17.21,-3.33 -30.58,3.04 -43.93,13.4 -4.9,3.44 -9.41,7.87 -15.7,8.96 0,0 1.5,-5.33 1.49,-5.33 9.51,6.07 32.54,-0.12 42.33,-4.72 4.3,-2.03 8.88,-4.4 11.92,-7.98 1.37,-1.77 4.18,-0.07 3.25,1.96 -5.17,10 -17.83,14.05 -27.98,16.73 -9.45,2.19 -24.46,4.24 -32.49,-2.49 -1.03,-0.86 -0.42,-2.66 0.91,-2.72 2.13,-0.52 4.37,-2.08 6.49,-3.7 8.73,-7.08 17.78,-14.81 28.65,-18.35 5.61,-1.9 11.7,-2.57 17.58,-1.79 2.92,0.33 5.78,1.08 8.52,2.1 1.06,0.4 1.6,1.58 1.19,2.64 -0.35,0.92 -1.3,1.44 -2.23,1.29 z"
               id="path43" />
          </g>
        </g>
        <g
           id="g45">
          <path
             class="st7"
             d="M 303.35,342.78 C 287.89,316.13 269.08,275.13 268.09,238.99 H 147.35 c -0.99,36.14 -19.8,77.14 -35.26,103.79"
             id="path44"
             style="fill:url(#Unbenannter_Verlauf_6)" />
          <path
             class="st8"
             d="m 300.97,344.16 c -17.88,-32.33 -33.41,-67.67 -34.81,-105.11 0,0 1.93,1.88 1.93,1.88 0,0 -120.74,0 -120.74,0 l 1.93,-1.88 c -1.4,37.45 -16.93,72.78 -34.81,105.12 -1.8,3.07 -6.57,0.53 -4.76,-2.76 17.98,-31.42 33.79,-65.9 35.71,-102.52 0.06,-1.03 0.91,-1.82 1.93,-1.82 h 120.74 c 1.05,0 1.91,0.84 1.93,1.88 0.7,18.2 5.56,36.06 11.89,53.09 6.43,17.11 14.56,33.6 23.82,49.38 1.73,3.14 -2.82,5.92 -4.76,2.75 v 0 z"
             id="path45" />
        </g>
        <circle
           class="st3"
           cx="206.92"
           cy="207.78"
           r="68.169998"
           id="circle45" />
        <g
           id="_x3C_Gruppe_Wangen_x3E_">
          <g
             id="_x3C_Pfad_Wangen_x3E_">
            <path
               class="st14"
               d="m 267.1,175.77 c -16.57,-5.59 -50.28,5.52 -35.47,42.5 0,0 -5.61,10.1 -24.72,10.1 -19.11,0 -24.16,-10.1 -24.16,-10.1 15.01,-37.49 -19.85,-48.39 -36.16,-42.26 -5.01,9.49 -7.86,20.29 -7.86,31.77 0,37.65 30.52,68.17 68.17,68.17 37.65,0 68.17,-30.52 68.17,-68.17 0,-11.57 -2.89,-22.47 -7.98,-32.01 z"
               id="path46"
               style="fill:url(#Unbenannter_Verlauf_11)" />
            <path
               class="st8"
               d="m 265.33,177.87 c -0.15,0.07 -0.27,0.11 -0.37,0.12 -0.05,0 -0.09,0 -0.15,-0.03 l -0.49,-0.11 -0.98,-0.22 c -9.56,-1.66 -20.69,1.25 -27.18,8.55 -5.58,6.17 -6.39,15.06 -4.51,22.94 0.56,2.76 1.54,5.45 2.54,8.13 0.33,0.78 0.26,1.67 -0.15,2.36 -2.84,4.48 -7.61,7.37 -12.44,9.16 -12.57,4.22 -30.95,3.48 -40.03,-7.37 -0.83,-1.06 -2.01,-2.55 -1.41,-4.01 1.02,-2.75 2.04,-5.52 2.61,-8.35 3.67,-15.01 -3.66,-27.53 -18.91,-30.99 -5.41,-1.26 -11.31,-1.26 -16.28,0.54 0,0 1.46,-1.29 1.46,-1.29 -5.45,9.82 -8.22,21.13 -8.01,32.44 0.64,42.53 41.92,73.37 82.92,62.27 40.99,-11.11 60.68,-56.48 41.38,-94.14 z m 3.55,-4.19 c 0.49,0.64 0.91,1.46 1.31,2.17 2.45,5.01 4.26,10.3 5.48,15.72 9.88,43.67 -23.72,86.25 -68.61,86.06 -24.17,0.32 -47.58,-12.95 -60.13,-33.56 -12.78,-20.46 -13.92,-47.63 -2.76,-69.34 0.31,-0.62 0.85,-1.08 1.46,-1.29 9.63,-3.28 19.85,-1.87 28.62,2.7 16.63,9.08 17.68,27.19 11.06,43.16 0,0 -0.09,-2.25 -0.09,-2.25 -0.02,-0.04 0.06,0.09 0.09,0.15 l 0.17,0.26 c 8.07,10.86 32.71,10.58 42.04,1.49 0.62,-0.57 1.26,-1.34 1.71,-2 0,0 -0.15,2.36 -0.15,2.36 -3.49,-8.84 -5.48,-18.94 -2.11,-28.2 5.09,-14.35 21.86,-21.13 36.18,-19.05 1.92,0.29 4.01,0.73 5.74,1.64 v 0 z"
               id="path47" />
          </g>
        </g>
        <path
           class="st8"
           d="m 145.29,174.44 c 12.16,-4.6 27.15,-1.51 36.29,7.81 7.12,7.22 8.72,18.32 6.49,27.87 -0.61,3.18 -1.67,6.19 -2.76,9.18 -0.52,1.43 -2.1,2.16 -3.52,1.64 -1.49,-0.54 -2.21,-2.24 -1.58,-3.69 1.04,-2.72 2.06,-5.46 2.65,-8.27 3.88,-15.36 -3.73,-28.07 -19.3,-31.61 -5.55,-1.28 -11.61,-1.3 -16.79,0.66 -2.4,0.95 -3.88,-2.57 -1.49,-3.6 v 0 z"
           id="path48" />
        <g
           id="_x3C_Auge_links_x3E_">
          <path
             class="st8"
             d="m 177.87,195.39 c -2.57,7.04 -11.8,10.24 -18.31,6.55 -2.27,-1.17 -7.58,-5.97 -3.96,-8.07 0.91,-0.43 1.95,-0.18 2.58,0.53 3.23,3.45 8.43,4.83 12.66,2.44 1.42,-0.76 2.65,-1.92 3.66,-3.3 1.34,-1.8 4.17,-0.21 3.37,1.86 v 0 z"
             id="path49" />
        </g>
        <circle
           class="st3"
           cx="206.92"
           cy="241.85001"
           r="34.130001"
           id="circle49" />
        <path
           class="st3"
           d="m 221.38,255.03 c -3.7,3.7 -8.81,5.99 -14.45,5.99 -5.64,0 -11.25,-2.52 -14.98,-6.54"
           id="path50" />
        <g
           id="_x3C_Gruppe_Nasenlöcher_x3E_">
          <path
             class="st3"
             d="m 228.45,229.14 c -2.43,0 -3.1,6.24 -3.1,8.4"
             id="path51" />
          <path
             class="st3"
             d="m 185.56,229.14 c 2.43,0 3.1,6.24 3.1,8.4"
             id="path52" />
        </g>
        <g
           id="_x3C_Auge_rechts_x3E_">
          <path
             class="st8"
             d="m 238.98,193.63 c 3.99,5.71 11.8,5.7 16.34,0.67 0.85,-0.85 2.23,-0.86 3.09,0 2.29,2.44 -2.46,6.53 -4.57,7.65 -6.51,3.69 -15.74,0.49 -18.31,-6.55 -0.81,-2.17 2.18,-3.67 3.45,-1.76 v 0 z"
             id="path53" />
        </g>
        <path
           class="st8"
           d="m 267.42,178.04 c -10.33,-3.7 -23.87,-0.67 -31.34,7.44 -8.12,8.69 -6.33,21.74 -2.05,31.89 1.22,3.43 -3.81,5.34 -5.15,1.92 -8.43,-20.72 -2.55,-40.95 20.82,-46.13 6.31,-1.27 12.97,-1.23 19.2,1.27 1,0.4 1.48,1.54 1.08,2.53 -0.4,1.01 -1.57,1.49 -2.57,1.07 v 0 z"
           id="path54" />
      </g>
      <path
         class="st5"
         d="M 142.58,406.45 H 419.7 v -87.08 c -21.58,3.94 -66.94,-3.69 -85.53,-21.49 -29.32,-28.06 -74.45,-21.92 -106.61,2.83 -24.16,18.6 -58.9,25.56 -84.97,17.58 v 88.15 z"
         id="path55"
         style="fill:url(#Unbenannter_Verlauf_109)" />
      <path
         class="st4"
         d="m 23.2,410.3 h 403.9 v -95.44 c -1.53,-1.33 -3.09,-2.73 -4.68,-4.26 -29.32,-28.06 -77.29,-28.06 -106.61,0 -29.32,28.06 -99.77,13.01 -133.83,-9.07 -35.95,-23.31 -75.33,-31.39 -109.45,-5.67 -15.88,11.97 -30.39,29.25 -49.33,29.53 z"
         id="path56"
         style="fill:url(#Unbenannter_Verlauf_95)" />
    </g>
    <circle
       class="st1"
       cx="206.92999"
       cy="198.35001"
       r="135.75999"
       id="circle56" />
  </g>
  <g
     id="Ebene_6"
     transform="translate(-68.419998,-59.840012)">
    <path
       class="st10"
       d="m 215.15,77.96 c -5.29,0 -10.2,1.63 -14.26,4.41 9.74,0.5 17.48,8.55 17.48,18.41 0,9.86 -8.25,18.44 -18.44,18.44 -1.7,0 -3.34,-0.23 -4.9,-0.66 4.62,6.06 11.91,9.98 20.12,9.98 13.96,0 25.28,-11.32 25.28,-25.28 0,-13.96 -11.32,-25.28 -25.28,-25.28 z"
       id="path57" />
    <circle
       class="st8"
       cx="186.3"
       cy="100.44"
       r="5.3299999"
       id="circle57" />
  </g>
</svg>
