<?xml version="1.0" encoding="UTF-8"?>
<svg xmlns="http://www.w3.org/2000/svg" xmlns:xlink="http://www.w3.org/1999/xlink" version="1.1" viewBox="0 0 413.86 413.86">
  <!-- Generator: Adobe Illustrator 29.6.1, SVG Export Plug-In . SVG Version: 2.1.1 Build 9)  -->
  <defs>
    <style>
      .st0, .st1 {
        fill: none;
      }

      .st2 {
        fill: url(#Unbenannter_Verlauf_117);
      }

      .st2, .st3 {
        stroke: #374f65;
        stroke-width: 5.5px;
      }

      .st2, .st3, .st1, .st4, .st5 {
        stroke-linecap: round;
        stroke-linejoin: round;
      }

      .st6 {
        fill: url(#Unbenannter_Verlauf_3);
      }

      .st7 {
        fill: url(#Unbenannter_Verlauf_6);
      }

      .st8 {
        fill: #374f65;
      }

      .st3, .st9 {
        fill: #fee9d2;
      }

      .st10 {
        fill: #fff;
      }

      .st1, .st11, .st4, .st5 {
        stroke: #26435f;
        stroke-width: 5px;
      }

      .st11 {
        fill: url(#Unbenannter_Verlauf_80);
        stroke-miterlimit: 10;
      }

      .st12 {
        fill: url(#Unbenannter_Verlauf_31);
      }

      .st13 {
        fill: url(#Unbenannter_Verlauf_35);
      }

      .st14 {
        fill: url(#Unbenannter_Verlauf_11);
      }

      .st4 {
        fill: url(#Unbenannter_Verlauf_95);
      }

      .st5 {
        fill: url(#Unbenannter_Verlauf_109);
      }

      .st15 {
        clip-path: url(#clippath);
      }
    </style>
    <radialGradient id="Unbenannter_Verlauf_117" data-name="Unbenannter Verlauf 117" cx="210.41" cy="46.94" fx="210.41" fy="46.94" r="247.88" gradientUnits="userSpaceOnUse">
      <stop offset=".31" stop-color="#eb96c0"/>
      <stop offset=".42" stop-color="#e499c3"/>
      <stop offset=".58" stop-color="#d3a3cb"/>
      <stop offset=".75" stop-color="#b7b2da"/>
      <stop offset=".94" stop-color="#8fc8ee"/>
      <stop offset="1" stop-color="#83d0f5"/>
    </radialGradient>
    <radialGradient id="Unbenannter_Verlauf_35" data-name="Unbenannter Verlauf 35" cx="207.99" cy="186.6" fx="207.99" fy="186.6" r="92.2" gradientUnits="userSpaceOnUse">
      <stop offset="0" stop-color="#daa181"/>
      <stop offset=".33" stop-color="#dba383"/>
      <stop offset=".52" stop-color="#deaa8b"/>
      <stop offset=".66" stop-color="#e4b699"/>
      <stop offset=".79" stop-color="#edc7ac"/>
      <stop offset=".9" stop-color="#f8ddc5"/>
      <stop offset=".94" stop-color="#fee9d2"/>
    </radialGradient>
    <clipPath id="clippath">
      <circle class="st0" cx="206.93" cy="198.35" r="135.76"/>
    </clipPath>
    <radialGradient id="Unbenannter_Verlauf_80" data-name="Unbenannter Verlauf 80" cx="202.59" cy="421.62" fx="202.59" fy="421.62" r="238.98" gradientUnits="userSpaceOnUse">
      <stop offset=".06" stop-color="#194383"/>
      <stop offset=".19" stop-color="#1c4786"/>
      <stop offset=".32" stop-color="#255390"/>
      <stop offset=".46" stop-color="#3467a0"/>
      <stop offset=".59" stop-color="#4a84b8"/>
      <stop offset=".73" stop-color="#65a9d5"/>
      <stop offset=".85" stop-color="#83d0f5"/>
    </radialGradient>
    <linearGradient id="Unbenannter_Verlauf_3" data-name="Unbenannter Verlauf 3" x1="266.38" y1="193.51" x2="327.25" y2="193.51" gradientUnits="userSpaceOnUse">
      <stop offset=".42" stop-color="#daa181"/>
      <stop offset=".87" stop-color="#fee9d2"/>
    </linearGradient>
    <linearGradient id="Unbenannter_Verlauf_31" data-name="Unbenannter Verlauf 3" x1="-5591.74" y1="193.51" x2="-5530.87" y2="193.51" gradientTransform="translate(-5444.31) rotate(-180) scale(1 -1)" xlink:href="#Unbenannter_Verlauf_3"/>
    <linearGradient id="Unbenannter_Verlauf_6" data-name="Unbenannter Verlauf 6" x1="112.09" y1="290.88" x2="303.35" y2="290.88" gradientUnits="userSpaceOnUse">
      <stop offset=".13" stop-color="#fee9d2"/>
      <stop offset=".58" stop-color="#daa181"/>
    </linearGradient>
    <linearGradient id="Unbenannter_Verlauf_11" data-name="Unbenannter Verlauf 11" x1="175.97" y1="268.54" x2="232.28" y2="158.03" gradientUnits="userSpaceOnUse">
      <stop offset=".32" stop-color="#fee9d2"/>
      <stop offset=".82" stop-color="#daa181"/>
    </linearGradient>
    <radialGradient id="Unbenannter_Verlauf_109" data-name="Unbenannter Verlauf 109" cx="250" cy="238.45" fx="250" fy="238.45" r="181.63" gradientUnits="userSpaceOnUse">
      <stop offset=".32" stop-color="#83d0f5"/>
      <stop offset=".43" stop-color="#65a8d5"/>
      <stop offset=".67" stop-color="#1a4584"/>
      <stop offset=".68" stop-color="#194383"/>
    </radialGradient>
    <linearGradient id="Unbenannter_Verlauf_95" data-name="Unbenannter Verlauf 95" x1="199.38" y1="226.92" x2="234.71" y2="412.88" gradientUnits="userSpaceOnUse">
      <stop offset=".25" stop-color="#83d0f5"/>
      <stop offset=".39" stop-color="#65a8d5"/>
      <stop offset=".71" stop-color="#1a4584"/>
      <stop offset=".71" stop-color="#194383"/>
    </linearGradient>
  </defs>
  <g id="Ebene_8">
    <circle id="_x3C_Ellipse_HG_x3E_" class="st2" cx="206.93" cy="198.35" r="135.76"/>
    <g id="_x3C_Gruppe_Horn_x3E_">
      <g id="_x3C_Horn_x3E_">
        <path class="st13" d="M151.77,173.28c-4.29-.94-8.28-2.64-11.84-4.95-7.89-5.14-13.62-13.29-15.55-22.83-.46-2.3-.7-4.67-.7-7.11,0-18.35,13.85-33.45,31.65-35.46-4.38,4.66-7.07,10.93-7.07,17.83,0,14.16,11.3,25.67,25.37,26.02,0,0,15.5.23,33.28.23s35.41-.23,35.41-.23c14.07-.35,25.37-11.87,25.37-26.02,0-6.9-2.69-13.17-7.08-17.83,17.82,2.01,31.66,17.11,31.66,35.46,0,2.44-.26,4.81-.71,7.11-1.93,9.54-7.66,17.69-15.54,22.83-3.57,2.31-7.56,4.01-11.84,4.95,0,0-25.17,3.4-57.28,3.4s-55.16-3.4-55.16-3.4Z"/>
        <path class="st8" d="M151.47,174.92c-3.35-.66-6.54-1.31-9.71-2.56-5.16-2.26-9.57-6.12-12.99-10.56-14.33-18.81-8.1-47.44,13.14-58.17,4.03-2.14,8.46-3.58,13.01-4.2,1.91-.34,3.74.96,4.02,2.89.17,1.15-.26,2.27-1.05,3.02-1.24,1.17-2.38,2.46-3.33,3.9-3.36,5.13-4.51,11.65-3.01,17.64,2.31,9.51,11.57,16.61,21.27,16.85,3.16.1,8.39-.1,11.64-.11,17.61-.2,35.27-.14,52.89.04,0,0,2.94.04,2.94.04,4.49.18,8.82-.6,12.81-2.74,9.51-5.01,14.64-16.96,11.25-27.26-1.05-3.44-2.92-6.61-5.44-9.17-.89-.95-.83-2.44.12-3.33.52-.48,1.2-.69,1.85-.62,4.44.43,8.82,1.65,12.86,3.6,21.44,10.27,27.96,38.79,13.06,57.3-5.5,7.02-13.51,12.01-22.24,13.76-32.88,3.58-65.99,3.32-98.94,1.01-4.64-.34-9.55-.79-14.17-1.36h0ZM152.07,171.65c36.76,5.46,75.58,4.49,111.71-.33,11.53-2.6,21.23-11.74,24.5-23.08,4.59-15.13-2.69-32.31-16.84-39.41-3.43-1.82-7.19-3.02-11.07-3.55.02.02,1.97-4.04,2-3.93,8.87,9.48,10.22,24.89,2.86,35.65-5.34,8.2-15.05,13.08-24.81,12.89-1.81.04-6.95.18-8.84.22-15.73.37-31.46.5-47.18.03-1.86-.05-7.03-.17-8.84-.23-9.74.14-19.42-4.78-24.7-13-7.19-10.59-5.54-26.12,3.64-34.78-.01,0,1.03,2,.98,1.99-15.76,2.42-28.76,16.61-29.05,32.63-.99,15.75,10.23,31.24,25.66,34.91h0Z"/>
      </g>
    </g>
    <g class="st15">
      <path id="_x3C_Welle_HG_x3E_" class="st11" d="M.52,410.3h409.57v-124.83c-14.25-2.88-30.44-9.37-41.02-19.5-29.32-28.06-77.3-28.06-106.62,0s-77.3,28.06-106.61,0-77.29-28.06-106.61,0c-13.49,12.92-30.94,19.87-48.7,20.9v123.43Z"/>
      <g>
        <g id="_x3C_Gruppe_Ohr_rechts_x3E_">
          <g>
            <path class="st6" d="M327.25,194.95c-1.01,17.35-36.42,31.44-54.76,5.86-1.11-4.3-2.86-18.71-6.11-27.21,33.08-7.88,48.9,20.46,60.87,21.35Z"/>
            <path class="st8" d="M329.31,193.14c.56,1.25.77,3.13.39,4.54,0,0-.26,1.27-.26,1.27,0,0-.4,1.21-.4,1.21-4.02,10.7-15.73,16.69-26.56,17.63-12.72,1.27-25.72-4.92-31.16-16.62-1.05-4.53-1.87-9.28-3.09-13.75-1.21-4.34-2.43-8.86-4.43-12.84-.8-1.55.26-3.37,1.93-3.66,2.86-.62,5.76-1.16,8.72-1.33,8.84-.67,17.91,1.46,25.68,5.54,5.2,2.68,9.9,6.07,14.37,9.45,3.27,2.42,6.36,4.99,9.9,6.7,1.62.86,3.39.8,4.91,1.85h0ZM325.98,196.05c-.28.34-.06.45-.4.35-2.51-.55-4.86-1.84-6.96-3.18-6.94-4.58-13.37-10.1-20.76-13.67-9.56-4.9-20.53-6.01-30.86-3.27,0,0,1.93-3.66,1.93-3.66.54,2.47.96,4.83,1.38,7.17,1.3,6.84,1.81,13.94,4.43,20.43,0,0-.36-.78-.36-.78,6.77,8.06,16.85,13.42,27.53,12.43,9.14-.81,19.36-5.35,23.02-14.28.09-.28.31-1.07.4-1.34,0-.03.02-.03.07-.03.1,0,.33,0,.58-.16h0Z"/>
          </g>
          <g>
            <path class="st9" d="M266.38,173.6c31.71-8.38,49.6,19.98,60.53,21.35-11.12,8.84-50.07-1.37-57.74-14.08"/>
            <path class="st8" d="M265.86,171.64c17.78-6.32,34.76,1.22,48.76,12.27,4.05,2.78,8.08,6.92,12.74,8.08,2.54.34,3.43,3.78,1.41,5.31-12.79,9.73-44.19.74-55.62-8.77-1.63-1.33-8.27-7.35-4.74-9.21.85-.42,1.83-.13,2.38.58,9.27,9.97,42.77,20.94,55.13,13.81,0,0,.79,2.82.79,2.82-3.23-.28-5.83-1.87-8.45-3.43-4.77-2.97-9.08-6.38-13.83-9.25-6.62-4.31-14.12-7.53-21.88-8.55-5.23-.76-10.56-.49-15.8.28-2.4.27-3.19-3.14-.91-3.95h0Z"/>
          </g>
        </g>
        <g id="_x3C_Gruppe_Ohr_links_x3E_">
          <g>
            <path class="st12" d="M86.56,194.95c1.01,17.35,36.42,31.44,54.76,5.86,1.11-4.3,2.86-18.71,6.11-27.21-33.08-7.88-48.9,20.46-60.87,21.35Z"/>
            <path class="st8" d="M88.63,196.76c.47.02.93-.3.9-.69.08.24.29.96.37,1.22,2.33,6.17,8.37,10.26,14.45,12.43,9.91,3.76,21.14,1.82,29.7-4.32,2.16-1.58,4.23-3.36,6.29-5.3l-.19.4c1.46-6.8,1.89-13.89,3.15-20.76.45-2.34.88-4.71,1.56-7.13l1.93,3.66c-10.3-2.55-21.2-1.28-30.61,3.75-8.74,4.25-15.73,11.69-24.47,16.25-1.02.5-2.15.88-3.26,1.15-.11.03-.25.07-.15.03.16-.08.35-.36.33-.7h0ZM85.3,193.84c.66-.39,1.63-.63,2.39-.82,4.61-1.48,8.2-4.91,12.09-7.8,4.41-3.45,9.01-6.88,14.13-9.61,7.65-4.17,16.63-6.42,25.42-5.88,2.95.13,5.86.62,8.73,1.2,0,0,.73.27.73.27,1.21.45,1.83,1.8,1.38,3.01-1.13,2.05-2.12,4.23-2.85,6.55-1.44,4.37-2.45,8.91-3.09,13.48,0,0-.37,3.49-.37,3.49-.2,1.29-.02,2.76-.43,4.1-6.28,11.13-19.46,17.21-32.07,15.57-10.55-1.22-21.83-7.15-25.61-17.61-.26-.76-.46-1.54-.6-2.34-.29-1.12-.18-2.57.15-3.61h0Z"/>
          </g>
          <g>
            <path class="st9" d="M147.43,173.6c-31.71-8.38-49.6,19.98-60.53,21.35,11.12,8.84,50.07-1.37,57.74-14.08"/>
            <path class="st8" d="M146.91,175.57c-17.21-3.33-30.58,3.04-43.93,13.4-4.9,3.44-9.41,7.87-15.7,8.96,0,0,1.5-5.33,1.49-5.33,9.51,6.07,32.54-.12,42.33-4.72,4.3-2.03,8.88-4.4,11.92-7.98,1.37-1.77,4.18-.07,3.25,1.96-5.17,10-17.83,14.05-27.98,16.73-9.45,2.19-24.46,4.24-32.49-2.49-1.03-.86-.42-2.66.91-2.72,2.13-.52,4.37-2.08,6.49-3.7,8.73-7.08,17.78-14.81,28.65-18.35,5.61-1.9,11.7-2.57,17.58-1.79,2.92.33,5.78,1.08,8.52,2.1,1.06.4,1.6,1.58,1.19,2.64-.35.92-1.3,1.44-2.23,1.29h0Z"/>
          </g>
        </g>
        <g>
          <path class="st7" d="M303.35,342.78c-15.46-26.65-34.27-67.65-35.26-103.79h-120.74c-.99,36.14-19.8,77.14-35.26,103.79"/>
          <path class="st8" d="M300.97,344.16c-17.88-32.33-33.41-67.67-34.81-105.11,0,0,1.93,1.88,1.93,1.88,0,0-120.74,0-120.74,0l1.93-1.88c-1.4,37.45-16.93,72.78-34.81,105.12-1.8,3.07-6.57.53-4.76-2.76,17.98-31.42,33.79-65.9,35.71-102.52.06-1.03.91-1.82,1.93-1.82h120.74c1.05,0,1.91.84,1.93,1.88.7,18.2,5.56,36.06,11.89,53.09,6.43,17.11,14.56,33.6,23.82,49.38,1.73,3.14-2.82,5.92-4.76,2.75h0Z"/>
        </g>
        <circle class="st3" cx="206.92" cy="207.78" r="68.17"/>
        <g id="_x3C_Gruppe_Wangen_x3E_">
          <g id="_x3C_Pfad_Wangen_x3E_">
            <path class="st14" d="M267.1,175.77c-16.57-5.59-50.28,5.52-35.47,42.5,0,0-5.61,10.1-24.72,10.1s-24.16-10.1-24.16-10.1c15.01-37.49-19.85-48.39-36.16-42.26-5.01,9.49-7.86,20.29-7.86,31.77,0,37.65,30.52,68.17,68.17,68.17s68.17-30.52,68.17-68.17c0-11.57-2.89-22.47-7.98-32.01Z"/>
            <path class="st8" d="M265.33,177.87c-.15.07-.27.11-.37.12-.05,0-.09,0-.15-.03l-.49-.11-.98-.22c-9.56-1.66-20.69,1.25-27.18,8.55-5.58,6.17-6.39,15.06-4.51,22.94.56,2.76,1.54,5.45,2.54,8.13.33.78.26,1.67-.15,2.36-2.84,4.48-7.61,7.37-12.44,9.16-12.57,4.22-30.95,3.48-40.03-7.37-.83-1.06-2.01-2.55-1.41-4.01,1.02-2.75,2.04-5.52,2.61-8.35,3.67-15.01-3.66-27.53-18.91-30.99-5.41-1.26-11.31-1.26-16.28.54,0,0,1.46-1.29,1.46-1.29-5.45,9.82-8.22,21.13-8.01,32.44.64,42.53,41.92,73.37,82.92,62.27,40.99-11.11,60.68-56.48,41.38-94.14h0ZM268.88,173.68c.49.64.91,1.46,1.31,2.17,2.45,5.01,4.26,10.3,5.48,15.72,9.88,43.67-23.72,86.25-68.61,86.06-24.17.32-47.58-12.95-60.13-33.56-12.78-20.46-13.92-47.63-2.76-69.34.31-.62.85-1.08,1.46-1.29,9.63-3.28,19.85-1.87,28.62,2.7,16.63,9.08,17.68,27.19,11.06,43.16,0,0-.09-2.25-.09-2.25-.02-.04.06.09.09.15l.17.26c8.07,10.86,32.71,10.58,42.04,1.49.62-.57,1.26-1.34,1.71-2,0,0-.15,2.36-.15,2.36-3.49-8.84-5.48-18.94-2.11-28.2,5.09-14.35,21.86-21.13,36.18-19.05,1.92.29,4.01.73,5.74,1.64h0Z"/>
          </g>
        </g>
        <path class="st8" d="M145.29,174.44c12.16-4.6,27.15-1.51,36.29,7.81,7.12,7.22,8.72,18.32,6.49,27.87-.61,3.18-1.67,6.19-2.76,9.18-.52,1.43-2.1,2.16-3.52,1.64-1.49-.54-2.21-2.24-1.58-3.69,1.04-2.72,2.06-5.46,2.65-8.27,3.88-15.36-3.73-28.07-19.3-31.61-5.55-1.28-11.61-1.3-16.79.66-2.4.95-3.88-2.57-1.49-3.6h0Z"/>
        <g id="_x3C_Auge_links_x3E_">
          <path class="st8" d="M177.87,195.39c-2.57,7.04-11.8,10.24-18.31,6.55-2.27-1.17-7.58-5.97-3.96-8.07.91-.43,1.95-.18,2.58.53,3.23,3.45,8.43,4.83,12.66,2.44,1.42-.76,2.65-1.92,3.66-3.3,1.34-1.8,4.17-.21,3.37,1.86h0Z"/>
        </g>
        <circle class="st3" cx="206.92" cy="241.85" r="34.13"/>
        <path class="st3" d="M221.38,255.03c-3.7,3.7-8.81,5.99-14.45,5.99s-11.25-2.52-14.98-6.54"/>
        <g id="_x3C_Gruppe_Nasenlöcher_x3E_">
          <path class="st3" d="M228.45,229.14c-2.43,0-3.1,6.24-3.1,8.4"/>
          <path class="st3" d="M185.56,229.14c2.43,0,3.1,6.24,3.1,8.4"/>
        </g>
        <g id="_x3C_Auge_rechts_x3E_">
          <path class="st8" d="M238.98,193.63c3.99,5.71,11.8,5.7,16.34.67.85-.85,2.23-.86,3.09,0,2.29,2.44-2.46,6.53-4.57,7.65-6.51,3.69-15.74.49-18.31-6.55-.81-2.17,2.18-3.67,3.45-1.76h0Z"/>
        </g>
        <path class="st8" d="M267.42,178.04c-10.33-3.7-23.87-.67-31.34,7.44-8.12,8.69-6.33,21.74-2.05,31.89,1.22,3.43-3.81,5.34-5.15,1.92-8.43-20.72-2.55-40.95,20.82-46.13,6.31-1.27,12.97-1.23,19.2,1.27,1,.4,1.48,1.54,1.08,2.53-.4,1.01-1.57,1.49-2.57,1.07h0Z"/>
      </g>
      <path class="st5" d="M142.58,406.45h277.12v-87.08c-21.58,3.94-66.94-3.69-85.53-21.49-29.32-28.06-74.45-21.92-106.61,2.83-24.16,18.6-58.9,25.56-84.97,17.58v88.15Z"/>
      <path class="st4" d="M23.2,410.3h403.9v-95.44c-1.53-1.33-3.09-2.73-4.68-4.26-29.32-28.06-77.29-28.06-106.61,0-29.32,28.06-99.77,13.01-133.83-9.07-35.95-23.31-75.33-31.39-109.45-5.67-15.88,11.97-30.39,29.25-49.33,29.53v84.91Z"/>
    </g>
    <circle class="st1" cx="206.93" cy="198.35" r="135.76"/>
  </g>
  <g id="Ebene_6">
    <path class="st10" d="M215.15,77.96c-5.29,0-10.2,1.63-14.26,4.41,9.74.5,17.48,8.55,17.48,18.41s-8.25,18.44-18.44,18.44c-1.7,0-3.34-.23-4.9-.66,4.62,6.06,11.91,9.98,20.12,9.98,13.96,0,25.28-11.32,25.28-25.28s-11.32-25.28-25.28-25.28Z"/>
    <circle class="st8" cx="186.3" cy="100.44" r="5.33"/>
  </g>
</svg>